<svg xmlns="http://www.w3.org/2000/svg" version="1.1" xmlns:xlink="http://www.w3.org/1999/xlink" xmlns:svgjs="http://svgjs.dev/svgjs" width="1440" height="560" preserveAspectRatio="none" viewBox="0 0 1440 560"><g mask="url(&quot;#SvgjsMask1000&quot;)" fill="none"><rect width="1440" height="560" x="0" y="0" fill="#0e2a47"></rect><path d="M45.92 -71.64L110.87 -34.14L110.87 40.86L45.92 78.36L-19.03 40.86L-19.03 -34.14zM45.92 153.36L110.87 190.86L110.87 265.86L45.92 303.36L-19.03 265.86L-19.03 190.86zM45.92 378.36L110.87 415.86L110.87 490.86L45.92 528.36L-19.03 490.86L-19.03 415.86zM175.83 -71.64L240.78 -34.14L240.78 40.86L175.83 78.36L110.87 40.86L110.87 -34.14zM175.83 153.36L240.78 190.86L240.78 265.86L175.83 303.36L110.87 265.86L110.87 190.86zM240.78 265.86L305.74 303.36L305.74 378.36L240.78 415.86L175.83 378.36L175.83 303.36zM175.83 378.36L240.78 415.86L240.78 490.86L175.83 528.36L110.87 490.86L110.87 415.86zM370.69 40.86L435.64 78.36L435.64 153.36L370.69 190.86L305.74 153.36L305.74 78.36zM305.74 153.36L370.69 190.86L370.69 265.86L305.74 303.36L240.78 265.86L240.78 190.86zM370.69 265.86L435.64 303.36L435.64 378.36L370.69 415.86L305.74 378.36L305.74 303.36zM370.69 490.86L435.64 528.36L435.64 603.36L370.69 640.86L305.74 603.36L305.74 528.36zM500.6 40.86L565.55 78.36L565.55 153.36L500.6 190.86L435.64 153.36L435.64 78.36zM435.64 378.36L500.6 415.86L500.6 490.86L435.64 528.36L370.69 490.86L370.69 415.86zM565.55 -71.64L630.5 -34.14L630.5 40.86L565.55 78.36L500.6 40.86L500.6 -34.14zM630.5 40.86L695.46 78.36L695.46 153.36L630.5 190.86L565.55 153.36L565.55 78.36zM565.55 153.36L630.5 190.86L630.5 265.86L565.55 303.36L500.6 265.86L500.6 190.86zM630.5 265.86L695.46 303.36L695.46 378.36L630.5 415.86L565.55 378.36L565.55 303.36zM565.55 378.36L630.5 415.86L630.5 490.86L565.55 528.36L500.6 490.86L500.6 415.86zM695.46 -71.64L760.41 -34.14L760.41 40.86L695.46 78.36L630.5 40.86L630.5 -34.14zM695.46 378.36L760.41 415.86L760.41 490.86L695.46 528.36L630.5 490.86L630.5 415.86zM760.41 490.86L825.37 528.36L825.37 603.36L760.41 640.86L695.46 603.36L695.46 528.36zM825.36 -71.64L890.32 -34.14L890.32 40.86L825.36 78.36L760.41 40.86L760.41 -34.14zM890.32 40.86L955.27 78.36L955.27 153.36L890.32 190.86L825.36 153.36L825.36 78.36zM825.36 153.36L890.32 190.86L890.32 265.86L825.36 303.36L760.41 265.86L760.41 190.86zM890.32 265.86L955.27 303.36L955.27 378.36L890.32 415.86L825.36 378.36L825.36 303.36zM955.27 -71.64L1020.23 -34.14L1020.23 40.86L955.27 78.36L890.32 40.86L890.32 -34.14zM1020.23 265.86L1085.18 303.36L1085.18 378.36L1020.23 415.86L955.27 378.36L955.27 303.36zM955.27 378.36L1020.23 415.86L1020.23 490.86L955.27 528.36L890.32 490.86L890.32 415.86zM1020.23 490.86L1085.18 528.36L1085.18 603.36L1020.23 640.86L955.27 603.36L955.27 528.36zM1085.18 153.36L1150.13 190.86L1150.13 265.86L1085.18 303.36L1020.23 265.86L1020.23 190.86zM1085.18 378.36L1150.13 415.86L1150.13 490.86L1085.18 528.36L1020.23 490.86L1020.23 415.86zM1280.04 40.86L1344.99 78.36L1344.99 153.36L1280.04 190.86L1215.09 153.36L1215.09 78.36zM1215.09 153.36L1280.04 190.86L1280.04 265.86L1215.09 303.36L1150.13 265.86L1150.13 190.86zM1409.95 40.86L1474.9 78.36L1474.9 153.36L1409.95 190.86L1345 153.36L1345 78.36zM1345 153.36L1409.95 190.86L1409.95 265.86L1345 303.36L1280.04 265.86L1280.04 190.86zM1409.95 265.86L1474.9 303.36L1474.9 378.36L1409.95 415.86L1345 378.36L1345 303.36zM1345 378.36L1409.95 415.86L1409.95 490.86L1345 528.36L1280.04 490.86L1280.04 415.86zM1409.95 490.86L1474.9 528.36L1474.9 603.36L1409.95 640.86L1345 603.36L1345 528.36zM1474.9 -71.64L1539.86 -34.14L1539.86 40.86L1474.9 78.36L1409.95 40.86L1409.95 -34.14zM1539.86 40.86L1604.81 78.36L1604.81 153.36L1539.86 190.86L1474.9 153.36L1474.9 78.36zM1474.9 153.36L1539.86 190.86L1539.86 265.86L1474.9 303.36L1409.95 265.86L1409.95 190.86z" stroke="#03305d" stroke-width="2"></path><path d="M38.42 -71.64 a7.5 7.5 0 1 0 15 0 a7.5 7.5 0 1 0 -15 0zM103.37 -34.14 a7.5 7.5 0 1 0 15 0 a7.5 7.5 0 1 0 -15 0zM103.37 40.86 a7.5 7.5 0 1 0 15 0 a7.5 7.5 0 1 0 -15 0zM38.42 78.36 a7.5 7.5 0 1 0 15 0 a7.5 7.5 0 1 0 -15 0zM-26.53 40.86 a7.5 7.5 0 1 0 15 0 a7.5 7.5 0 1 0 -15 0zM-26.53 -34.14 a7.5 7.5 0 1 0 15 0 a7.5 7.5 0 1 0 -15 0zM38.42 153.36 a7.5 7.5 0 1 0 15 0 a7.5 7.5 0 1 0 -15 0zM103.37 190.86 a7.5 7.5 0 1 0 15 0 a7.5 7.5 0 1 0 -15 0zM103.37 265.86 a7.5 7.5 0 1 0 15 0 a7.5 7.5 0 1 0 -15 0zM38.42 303.36 a7.5 7.5 0 1 0 15 0 a7.5 7.5 0 1 0 -15 0zM-26.53 265.86 a7.5 7.5 0 1 0 15 0 a7.5 7.5 0 1 0 -15 0zM-26.53 190.86 a7.5 7.5 0 1 0 15 0 a7.5 7.5 0 1 0 -15 0zM38.42 378.36 a7.5 7.5 0 1 0 15 0 a7.5 7.5 0 1 0 -15 0zM103.37 415.86 a7.5 7.5 0 1 0 15 0 a7.5 7.5 0 1 0 -15 0zM103.37 490.86 a7.5 7.5 0 1 0 15 0 a7.5 7.5 0 1 0 -15 0zM38.42 528.36 a7.5 7.5 0 1 0 15 0 a7.5 7.5 0 1 0 -15 0zM-26.53 490.86 a7.5 7.5 0 1 0 15 0 a7.5 7.5 0 1 0 -15 0zM-26.53 415.86 a7.5 7.5 0 1 0 15 0 a7.5 7.5 0 1 0 -15 0zM168.33 -71.64 a7.5 7.5 0 1 0 15 0 a7.5 7.5 0 1 0 -15 0zM233.28 -34.14 a7.5 7.5 0 1 0 15 0 a7.5 7.5 0 1 0 -15 0zM233.28 40.86 a7.5 7.5 0 1 0 15 0 a7.5 7.5 0 1 0 -15 0zM168.33 78.36 a7.5 7.5 0 1 0 15 0 a7.5 7.5 0 1 0 -15 0zM168.33 153.36 a7.5 7.5 0 1 0 15 0 a7.5 7.5 0 1 0 -15 0zM233.28 190.86 a7.5 7.5 0 1 0 15 0 a7.5 7.5 0 1 0 -15 0zM233.28 265.86 a7.5 7.5 0 1 0 15 0 a7.5 7.5 0 1 0 -15 0zM168.33 303.36 a7.5 7.5 0 1 0 15 0 a7.5 7.5 0 1 0 -15 0zM298.24 303.36 a7.5 7.5 0 1 0 15 0 a7.5 7.5 0 1 0 -15 0zM298.24 378.36 a7.5 7.5 0 1 0 15 0 a7.5 7.5 0 1 0 -15 0zM233.28 415.86 a7.5 7.5 0 1 0 15 0 a7.5 7.5 0 1 0 -15 0zM168.33 378.36 a7.5 7.5 0 1 0 15 0 a7.5 7.5 0 1 0 -15 0zM233.28 490.86 a7.5 7.5 0 1 0 15 0 a7.5 7.5 0 1 0 -15 0zM168.33 528.36 a7.5 7.5 0 1 0 15 0 a7.5 7.5 0 1 0 -15 0zM363.19 40.86 a7.5 7.5 0 1 0 15 0 a7.5 7.5 0 1 0 -15 0zM428.14 78.36 a7.5 7.5 0 1 0 15 0 a7.5 7.5 0 1 0 -15 0zM428.14 153.36 a7.5 7.5 0 1 0 15 0 a7.5 7.5 0 1 0 -15 0zM363.19 190.86 a7.5 7.5 0 1 0 15 0 a7.5 7.5 0 1 0 -15 0zM298.24 153.36 a7.5 7.5 0 1 0 15 0 a7.5 7.5 0 1 0 -15 0zM298.24 78.36 a7.5 7.5 0 1 0 15 0 a7.5 7.5 0 1 0 -15 0zM363.19 265.86 a7.5 7.5 0 1 0 15 0 a7.5 7.5 0 1 0 -15 0zM428.14 303.36 a7.5 7.5 0 1 0 15 0 a7.5 7.5 0 1 0 -15 0zM428.14 378.36 a7.5 7.5 0 1 0 15 0 a7.5 7.5 0 1 0 -15 0zM363.19 415.86 a7.5 7.5 0 1 0 15 0 a7.5 7.5 0 1 0 -15 0zM363.19 490.86 a7.5 7.5 0 1 0 15 0 a7.5 7.5 0 1 0 -15 0zM428.14 528.36 a7.5 7.5 0 1 0 15 0 a7.5 7.5 0 1 0 -15 0zM428.14 603.36 a7.5 7.5 0 1 0 15 0 a7.5 7.5 0 1 0 -15 0zM363.19 640.86 a7.5 7.5 0 1 0 15 0 a7.5 7.5 0 1 0 -15 0zM298.24 603.36 a7.5 7.5 0 1 0 15 0 a7.5 7.5 0 1 0 -15 0zM298.24 528.36 a7.5 7.5 0 1 0 15 0 a7.5 7.5 0 1 0 -15 0zM493.1 40.86 a7.5 7.5 0 1 0 15 0 a7.5 7.5 0 1 0 -15 0zM558.05 78.36 a7.5 7.5 0 1 0 15 0 a7.5 7.5 0 1 0 -15 0zM558.05 153.36 a7.5 7.5 0 1 0 15 0 a7.5 7.5 0 1 0 -15 0zM493.1 190.86 a7.5 7.5 0 1 0 15 0 a7.5 7.5 0 1 0 -15 0zM493.1 415.86 a7.5 7.5 0 1 0 15 0 a7.5 7.5 0 1 0 -15 0zM493.1 490.86 a7.5 7.5 0 1 0 15 0 a7.5 7.5 0 1 0 -15 0zM558.05 -71.64 a7.5 7.5 0 1 0 15 0 a7.5 7.5 0 1 0 -15 0zM623 -34.14 a7.5 7.5 0 1 0 15 0 a7.5 7.5 0 1 0 -15 0zM623 40.86 a7.5 7.5 0 1 0 15 0 a7.5 7.5 0 1 0 -15 0zM493.1 -34.14 a7.5 7.5 0 1 0 15 0 a7.5 7.5 0 1 0 -15 0zM687.96 78.36 a7.5 7.5 0 1 0 15 0 a7.5 7.5 0 1 0 -15 0zM687.96 153.36 a7.5 7.5 0 1 0 15 0 a7.5 7.5 0 1 0 -15 0zM623 190.86 a7.5 7.5 0 1 0 15 0 a7.5 7.5 0 1 0 -15 0zM623 265.86 a7.5 7.5 0 1 0 15 0 a7.5 7.5 0 1 0 -15 0zM558.05 303.36 a7.5 7.5 0 1 0 15 0 a7.5 7.5 0 1 0 -15 0zM493.1 265.86 a7.5 7.5 0 1 0 15 0 a7.5 7.5 0 1 0 -15 0zM687.96 303.36 a7.5 7.5 0 1 0 15 0 a7.5 7.5 0 1 0 -15 0zM687.96 378.36 a7.5 7.5 0 1 0 15 0 a7.5 7.5 0 1 0 -15 0zM623 415.86 a7.5 7.5 0 1 0 15 0 a7.5 7.5 0 1 0 -15 0zM558.05 378.36 a7.5 7.5 0 1 0 15 0 a7.5 7.5 0 1 0 -15 0zM623 490.86 a7.5 7.5 0 1 0 15 0 a7.5 7.5 0 1 0 -15 0zM558.05 528.36 a7.5 7.5 0 1 0 15 0 a7.5 7.5 0 1 0 -15 0zM687.96 -71.64 a7.5 7.5 0 1 0 15 0 a7.5 7.5 0 1 0 -15 0zM752.91 -34.14 a7.5 7.5 0 1 0 15 0 a7.5 7.5 0 1 0 -15 0zM752.91 40.86 a7.5 7.5 0 1 0 15 0 a7.5 7.5 0 1 0 -15 0zM752.91 415.86 a7.5 7.5 0 1 0 15 0 a7.5 7.5 0 1 0 -15 0zM752.91 490.86 a7.5 7.5 0 1 0 15 0 a7.5 7.5 0 1 0 -15 0zM687.96 528.36 a7.5 7.5 0 1 0 15 0 a7.5 7.5 0 1 0 -15 0zM817.87 528.36 a7.5 7.5 0 1 0 15 0 a7.5 7.5 0 1 0 -15 0zM817.87 603.36 a7.5 7.5 0 1 0 15 0 a7.5 7.5 0 1 0 -15 0zM752.91 640.86 a7.5 7.5 0 1 0 15 0 a7.5 7.5 0 1 0 -15 0zM687.96 603.36 a7.5 7.5 0 1 0 15 0 a7.5 7.5 0 1 0 -15 0zM817.86 -71.64 a7.5 7.5 0 1 0 15 0 a7.5 7.5 0 1 0 -15 0zM882.82 -34.14 a7.5 7.5 0 1 0 15 0 a7.5 7.5 0 1 0 -15 0zM882.82 40.86 a7.5 7.5 0 1 0 15 0 a7.5 7.5 0 1 0 -15 0zM817.86 78.36 a7.5 7.5 0 1 0 15 0 a7.5 7.5 0 1 0 -15 0zM947.77 78.36 a7.5 7.5 0 1 0 15 0 a7.5 7.5 0 1 0 -15 0zM947.77 153.36 a7.5 7.5 0 1 0 15 0 a7.5 7.5 0 1 0 -15 0zM882.82 190.86 a7.5 7.5 0 1 0 15 0 a7.5 7.5 0 1 0 -15 0zM817.86 153.36 a7.5 7.5 0 1 0 15 0 a7.5 7.5 0 1 0 -15 0zM882.82 265.86 a7.5 7.5 0 1 0 15 0 a7.5 7.5 0 1 0 -15 0zM817.86 303.36 a7.5 7.5 0 1 0 15 0 a7.5 7.5 0 1 0 -15 0zM752.91 265.86 a7.5 7.5 0 1 0 15 0 a7.5 7.5 0 1 0 -15 0zM752.91 190.86 a7.5 7.5 0 1 0 15 0 a7.5 7.5 0 1 0 -15 0zM947.77 303.36 a7.5 7.5 0 1 0 15 0 a7.5 7.5 0 1 0 -15 0zM947.77 378.36 a7.5 7.5 0 1 0 15 0 a7.5 7.5 0 1 0 -15 0zM882.82 415.86 a7.5 7.5 0 1 0 15 0 a7.5 7.5 0 1 0 -15 0zM817.86 378.36 a7.5 7.5 0 1 0 15 0 a7.5 7.5 0 1 0 -15 0zM947.77 -71.64 a7.5 7.5 0 1 0 15 0 a7.5 7.5 0 1 0 -15 0zM1012.73 -34.14 a7.5 7.5 0 1 0 15 0 a7.5 7.5 0 1 0 -15 0zM1012.73 40.86 a7.5 7.5 0 1 0 15 0 a7.5 7.5 0 1 0 -15 0zM1012.73 265.86 a7.5 7.5 0 1 0 15 0 a7.5 7.5 0 1 0 -15 0zM1077.68 303.36 a7.5 7.5 0 1 0 15 0 a7.5 7.5 0 1 0 -15 0zM1077.68 378.36 a7.5 7.5 0 1 0 15 0 a7.5 7.5 0 1 0 -15 0zM1012.73 415.86 a7.5 7.5 0 1 0 15 0 a7.5 7.5 0 1 0 -15 0zM1012.73 490.86 a7.5 7.5 0 1 0 15 0 a7.5 7.5 0 1 0 -15 0zM947.77 528.36 a7.5 7.5 0 1 0 15 0 a7.5 7.5 0 1 0 -15 0zM882.82 490.86 a7.5 7.5 0 1 0 15 0 a7.5 7.5 0 1 0 -15 0zM1077.68 528.36 a7.5 7.5 0 1 0 15 0 a7.5 7.5 0 1 0 -15 0zM1077.68 603.36 a7.5 7.5 0 1 0 15 0 a7.5 7.5 0 1 0 -15 0zM1012.73 640.86 a7.5 7.5 0 1 0 15 0 a7.5 7.5 0 1 0 -15 0zM947.77 603.36 a7.5 7.5 0 1 0 15 0 a7.5 7.5 0 1 0 -15 0zM1077.68 153.36 a7.5 7.5 0 1 0 15 0 a7.5 7.5 0 1 0 -15 0zM1142.63 190.86 a7.5 7.5 0 1 0 15 0 a7.5 7.5 0 1 0 -15 0zM1142.63 265.86 a7.5 7.5 0 1 0 15 0 a7.5 7.5 0 1 0 -15 0zM1012.73 190.86 a7.5 7.5 0 1 0 15 0 a7.5 7.5 0 1 0 -15 0zM1142.63 415.86 a7.5 7.5 0 1 0 15 0 a7.5 7.5 0 1 0 -15 0zM1142.63 490.86 a7.5 7.5 0 1 0 15 0 a7.5 7.5 0 1 0 -15 0zM1272.54 40.86 a7.5 7.5 0 1 0 15 0 a7.5 7.5 0 1 0 -15 0zM1337.49 78.36 a7.5 7.5 0 1 0 15 0 a7.5 7.5 0 1 0 -15 0zM1337.49 153.36 a7.5 7.5 0 1 0 15 0 a7.5 7.5 0 1 0 -15 0zM1272.54 190.86 a7.5 7.5 0 1 0 15 0 a7.5 7.5 0 1 0 -15 0zM1207.59 153.36 a7.5 7.5 0 1 0 15 0 a7.5 7.5 0 1 0 -15 0zM1207.59 78.36 a7.5 7.5 0 1 0 15 0 a7.5 7.5 0 1 0 -15 0zM1272.54 265.86 a7.5 7.5 0 1 0 15 0 a7.5 7.5 0 1 0 -15 0zM1207.59 303.36 a7.5 7.5 0 1 0 15 0 a7.5 7.5 0 1 0 -15 0zM1402.45 40.86 a7.5 7.5 0 1 0 15 0 a7.5 7.5 0 1 0 -15 0zM1467.4 78.36 a7.5 7.5 0 1 0 15 0 a7.5 7.5 0 1 0 -15 0zM1467.4 153.36 a7.5 7.5 0 1 0 15 0 a7.5 7.5 0 1 0 -15 0zM1402.45 190.86 a7.5 7.5 0 1 0 15 0 a7.5 7.5 0 1 0 -15 0zM1337.5 153.36 a7.5 7.5 0 1 0 15 0 a7.5 7.5 0 1 0 -15 0zM1337.5 78.36 a7.5 7.5 0 1 0 15 0 a7.5 7.5 0 1 0 -15 0zM1402.45 265.86 a7.5 7.5 0 1 0 15 0 a7.5 7.5 0 1 0 -15 0zM1337.5 303.36 a7.5 7.5 0 1 0 15 0 a7.5 7.5 0 1 0 -15 0zM1467.4 303.36 a7.5 7.5 0 1 0 15 0 a7.5 7.5 0 1 0 -15 0zM1467.4 378.36 a7.5 7.5 0 1 0 15 0 a7.5 7.5 0 1 0 -15 0zM1402.45 415.86 a7.5 7.5 0 1 0 15 0 a7.5 7.5 0 1 0 -15 0zM1337.5 378.36 a7.5 7.5 0 1 0 15 0 a7.5 7.5 0 1 0 -15 0zM1402.45 490.86 a7.5 7.5 0 1 0 15 0 a7.5 7.5 0 1 0 -15 0zM1337.5 528.36 a7.5 7.5 0 1 0 15 0 a7.5 7.5 0 1 0 -15 0zM1272.54 490.86 a7.5 7.5 0 1 0 15 0 a7.5 7.5 0 1 0 -15 0zM1272.54 415.86 a7.5 7.5 0 1 0 15 0 a7.5 7.5 0 1 0 -15 0zM1467.4 528.36 a7.5 7.5 0 1 0 15 0 a7.5 7.5 0 1 0 -15 0zM1467.4 603.36 a7.5 7.5 0 1 0 15 0 a7.5 7.5 0 1 0 -15 0zM1402.45 640.86 a7.5 7.5 0 1 0 15 0 a7.5 7.5 0 1 0 -15 0zM1337.5 603.36 a7.5 7.5 0 1 0 15 0 a7.5 7.5 0 1 0 -15 0zM1467.4 -71.64 a7.5 7.5 0 1 0 15 0 a7.5 7.5 0 1 0 -15 0zM1532.36 -34.14 a7.5 7.5 0 1 0 15 0 a7.5 7.5 0 1 0 -15 0zM1532.36 40.86 a7.5 7.5 0 1 0 15 0 a7.5 7.5 0 1 0 -15 0zM1402.45 -34.14 a7.5 7.5 0 1 0 15 0 a7.5 7.5 0 1 0 -15 0zM1597.31 78.36 a7.5 7.5 0 1 0 15 0 a7.5 7.5 0 1 0 -15 0zM1597.31 153.36 a7.5 7.5 0 1 0 15 0 a7.5 7.5 0 1 0 -15 0zM1532.36 190.86 a7.5 7.5 0 1 0 15 0 a7.5 7.5 0 1 0 -15 0zM1532.36 265.86 a7.5 7.5 0 1 0 15 0 a7.5 7.5 0 1 0 -15 0z" fill="#03305d"></path><path d="M130.4 520.32L173.7 545.32L173.7 595.32L130.4 620.32L87.09 595.32L87.09 545.32zM173.7 295.32L217 320.32L217 370.32L173.7 395.32L130.4 370.32L130.4 320.32zM217 370.32L260.31 395.32L260.31 445.32L217 470.32L173.7 445.32L173.7 395.32zM260.31 -4.68L303.61 20.32L303.61 70.32L260.31 95.32L217 70.32L217 20.32zM303.61 70.32L346.91 95.32L346.91 145.32L303.61 170.32L260.31 145.32L260.31 95.32zM303.61 220.32L346.91 245.32L346.91 295.32L303.61 320.32L260.31 295.32L260.31 245.32zM303.61 370.32L346.91 395.32L346.91 445.32L303.61 470.32L260.31 445.32L260.31 395.32zM390.21 70.32L433.52 95.32L433.52 145.32L390.21 170.32L346.91 145.32L346.91 95.32zM346.91 145.32L390.21 170.32L390.21 220.32L346.91 245.32L303.61 220.32L303.61 170.32zM390.21 520.32L433.52 545.32L433.52 595.32L390.21 620.32L346.91 595.32L346.91 545.32zM433.52 295.32L476.82 320.32L476.82 370.32L433.52 395.32L390.21 370.32L390.21 320.32zM520.12 145.32L563.42 170.32L563.42 220.32L520.12 245.32L476.82 220.32L476.82 170.32zM520.12 295.32L563.42 320.32L563.42 370.32L520.12 395.32L476.82 370.32L476.82 320.32zM650.03 70.32L693.33 95.32L693.33 145.32L650.03 170.32L606.73 145.32L606.73 95.32zM606.73 145.32L650.03 170.32L650.03 220.32L606.73 245.32L563.42 220.32L563.42 170.32zM650.03 370.32L693.33 395.32L693.33 445.32L650.03 470.32L606.73 445.32L606.73 395.32zM693.33 295.32L736.63 320.32L736.63 370.32L693.33 395.32L650.03 370.32L650.03 320.32zM823.24 370.32L866.54 395.32L866.54 445.32L823.24 470.32L779.94 445.32L779.94 395.32zM909.84 370.32L953.15 395.32L953.15 445.32L909.84 470.32L866.54 445.32L866.54 395.32zM953.15 445.32L996.45 470.32L996.45 520.32L953.15 545.32L909.84 520.32L909.84 470.32zM1169.66 70.32L1212.96 95.32L1212.96 145.32L1169.66 170.32L1126.36 145.32L1126.36 95.32zM1169.66 220.32L1212.96 245.32L1212.96 295.32L1169.66 320.32L1126.36 295.32L1126.36 245.32zM1212.96 445.32L1256.26 470.32L1256.26 520.32L1212.96 545.32L1169.66 520.32L1169.66 470.32zM1299.57 145.32L1342.87 170.32L1342.87 220.32L1299.57 245.32L1256.26 220.32L1256.26 170.32zM1299.57 445.32L1342.87 470.32L1342.87 520.32L1299.57 545.32L1256.26 520.32L1256.26 470.32zM1342.87 520.32L1386.17 545.32L1386.17 595.32L1342.87 620.32L1299.57 595.32L1299.57 545.32z" stroke="rgba(6, 80, 156, 0.93)" stroke-width="2"></path></g><defs><mask id="SvgjsMask1000"><rect width="1440" height="560" fill="#ffffff"></rect></mask></defs></svg>